<svg width="44" height="44" viewBox="0 0 44 44" fill="none" xmlns="http://www.w3.org/2000/svg">
<path d="M42.5233 16.153L43.4577 20.7305C43.1449 20.7621 42.8334 20.7929 42.5233 20.823M42.5233 16.153L40.0549 11.2248M42.5233 16.153L40.4604 15.4866M42.5233 16.153V20.823M40.0549 11.2248L38.2389 8.13805M40.0549 11.2248L36.7931 10.2952M40.0549 11.2248L36.0174 7.10329M40.0549 11.2248L40.4604 15.4866M38.2389 8.13805L35.5589 5.52486M38.2389 8.13805L36.0174 7.10329M35.5589 5.52486L31.733 3.50796M35.5589 5.52486L36.0174 7.10329M31.733 3.50796L30.6046 2.73628L26.6728 1.40338M31.733 3.50796L27.4486 2.73628M31.733 3.50796L26.6728 1.40338M31.733 3.50796L32.0503 5.98085M31.733 3.50796L36.0174 7.10329M26.6728 1.40338L22.3884 1M26.6728 1.40338L27.4486 2.73628M22.3884 1L17.628 1.40338M22.3884 1V2.99935M22.3884 1L27.4486 2.73628M22.3884 1L17.1167 2.73628M17.628 1.40338L14.0136 2.73628L12.2152 3.50796M17.628 1.40338L17.1167 2.73628M17.628 1.40338L12.2152 3.50796M12.2152 3.50796L9.05926 5.52486M12.2152 3.50796L17.1167 2.73628M12.2152 3.50796L8.2306 7.10329M12.2152 3.50796L12.5679 5.98085M9.05926 5.52486L6.16775 8.13805M9.05926 5.52486L8.2306 7.10329M6.16775 8.13805L3.99911 11.2248M6.16775 8.13805L8.2306 7.10329M3.99911 11.2248L1.83047 16.153M3.99911 11.2248L7.87797 10.2952M3.99911 11.2248L8.2306 7.10329M3.99911 11.2248V15.8899M1.83047 16.153L1.0018 21.5548C1.27951 21.5615 1.55572 21.5682 1.83047 21.5748M1.83047 16.153L3.99911 15.8899M1.83047 16.153V21.5748M3.99911 15.8899L9.37662 15.4866M3.99911 15.8899L7.87797 10.2952M3.99911 15.8899L1.83047 21.5748M3.99911 15.8899L5.60355 21.663M9.37662 15.4866L17.628 15.1183M9.37662 15.4866L14.0136 9.57618M9.37662 15.4866L7.87797 10.2952M9.37662 15.4866L5.60355 21.663M9.37662 15.4866L12.8852 21.8028M17.628 15.1183L27.4486 14.8201M17.628 15.1183L22.3884 9.26049M17.628 15.1183L14.0136 9.57618M17.628 15.1183L12.8852 21.8028M17.628 15.1183L22.3884 21.8442M27.4486 14.8201L35.5589 15.1183M27.4486 14.8201L30.6046 9.57618M27.4486 14.8201L22.3884 9.26049M27.4486 14.8201L22.3884 21.8442M27.4486 14.8201L32.5953 21.5548M35.5589 15.1183L40.4604 15.4866M35.5589 15.1183L36.7931 10.2952M35.5589 15.1183L30.6046 9.57618M35.5589 15.1183L32.5953 21.5548M35.5589 15.1183L39.3849 21.1044M40.4604 15.4866L36.7931 10.2952M40.4604 15.4866L39.3849 21.1044M40.4604 15.4866L42.5233 20.823M36.7931 10.2952L30.6046 9.57618M36.7931 10.2952L32.0503 5.98085M36.7931 10.2952L36.0174 7.10329M30.6046 9.57618L22.3884 9.26049M30.6046 9.57618L25.7913 5.20917M30.6046 9.57618L32.0503 5.98085M22.3884 9.26049L14.0136 9.57618M22.3884 9.26049L18.7741 5.20917M22.3884 9.26049L25.7913 5.20917M14.0136 9.57618L7.87797 10.2952M14.0136 9.57618L12.5679 5.98085M14.0136 9.57618L18.7741 5.20917M7.87797 10.2952L8.2306 7.10329M7.87797 10.2952L12.5679 5.98085M8.2306 7.10329L12.5679 5.98085M12.5679 5.98085L18.7741 5.20917M12.5679 5.98085L17.1167 2.73628M18.7741 5.20917H25.7913M18.7741 5.20917L17.1167 2.73628M18.7741 5.20917L22.3884 2.99935M25.7913 5.20917L32.0503 5.98085M25.7913 5.20917L22.3884 2.99935M25.7913 5.20917L27.4486 2.73628M32.0503 5.98085L36.0174 7.10329M32.0503 5.98085L27.4486 2.73628M27.4486 2.73628L22.3884 2.99935M22.3884 2.99935L17.1167 2.73628M1.83047 21.5748C3.11897 21.6057 4.37536 21.6354 5.60355 21.663M5.60355 21.663C8.13965 21.7201 10.5555 21.7686 12.8852 21.8028M12.8852 21.8028C16.1938 21.8513 19.3288 21.8707 22.3884 21.8442M22.3884 21.8442C25.8397 21.8142 29.1951 21.7259 32.5953 21.5548M32.5953 21.5548C34.8259 21.4425 37.0759 21.2947 39.3849 21.1044M39.3849 21.1044C40.418 21.0193 41.463 20.9257 42.5233 20.823M1 21.5882L2.0981 28.1367M2.0981 28.1367L4.63675 33.0291M2.0981 28.1367L4.17029 28.7735M2.0981 28.1367L1.82455 21.5721L4.17029 28.7735M4.63675 33.0291L6.49675 36.0895M4.63675 33.0291L7.91145 33.9118M4.63675 33.0291L8.73282 37.0924M4.63675 33.0291L4.17029 28.7735M6.49675 36.0895L9.21378 38.6641M6.49675 36.0895L8.73282 37.0924M9.21378 38.6641L13.0682 40.626M9.21378 38.6641L8.73282 37.0924M13.0682 40.626L14.2076 41.3815L18.158 42.658M13.0682 40.626L17.3632 41.3363M13.0682 40.626L18.158 42.658M13.0682 40.626L12.7155 38.1579M13.0682 40.626L8.73282 37.0924M18.158 42.658L22.4476 43M18.158 42.658L17.3632 41.3363M22.4476 43L27.2018 42.5285M22.4476 43L22.419 41.0008M22.4476 43L17.3632 41.3363M22.4476 43L27.694 41.1884M27.2018 42.5285L30.7968 41.144L32.5839 40.3467M27.2018 42.5285L27.694 41.1884M27.2018 42.5285L32.5839 40.3467M32.5839 40.3467L35.7107 38.2848M32.5839 40.3467L27.694 41.1884M32.5839 40.3467L36.5167 36.6947M32.5839 40.3467L32.196 37.8791M35.7107 38.2848L38.5645 35.6305M35.7107 38.2848L36.5167 36.6947M38.5645 35.6305L40.6887 32.5131M38.5645 35.6305L36.5167 36.6947M40.6887 32.5131L42.7866 27.5543M40.6887 32.5131L36.8236 33.498M40.6887 32.5131L36.5167 36.6947M40.6887 32.5131L40.622 27.8484M42.7866 27.5543L43.4563 20.7476M42.7866 27.5543L40.622 27.8484M42.7866 27.5543L42.518 20.8122L40.622 27.8484M40.622 27.8484L35.2508 28.3287M40.622 27.8484L36.8236 33.498M40.622 27.8484L39.3815 21.1032L35.2508 28.3287M35.2508 28.3287L27.0056 28.815M35.2508 28.3287L30.6989 34.3048M35.2508 28.3287L36.8236 33.498M35.2508 28.3287L32.5912 21.5559L27.0056 28.815M27.0056 28.815L17.1903 29.2537M27.0056 28.815L22.3294 34.7403M27.0056 28.815L30.6989 34.3048M27.0056 28.815L22.3895 21.8469L17.1903 29.2537M17.1903 29.2537L9.07648 29.0717M17.1903 29.2537L14.1097 34.5423M17.1903 29.2537L22.3294 34.7403M17.1903 29.2537L12.8831 21.7984L9.07648 29.0717M9.07648 29.0717L4.17029 28.7735M9.07648 29.0717L7.91145 33.9118M9.07648 29.0717L14.1097 34.5423M9.07648 29.0717L5.60775 21.6529L4.17029 28.7735M4.17029 28.7735L7.91145 33.9118M7.91145 33.9118L14.1097 34.5423M7.91145 33.9118L12.7155 38.1579M7.91145 33.9118L8.73282 37.0924M14.1097 34.5423L22.3294 34.7403M14.1097 34.5423L18.985 38.8399M14.1097 34.5423L12.7155 38.1579M22.3294 34.7403L30.6989 34.3048M22.3294 34.7403L26.0015 38.7395M22.3294 34.7403L18.985 38.8399M30.6989 34.3048L36.8236 33.498M30.6989 34.3048L32.196 37.8791M30.6989 34.3048L26.0015 38.7395M36.8236 33.498L36.5167 36.6947M36.8236 33.498L32.196 37.8791M36.5167 36.6947L32.196 37.8791M32.196 37.8791L26.0015 38.7395M32.196 37.8791L27.694 41.1884M26.0015 38.7395L18.985 38.8399M26.0015 38.7395L27.694 41.1884M26.0015 38.7395L22.419 41.0008M18.985 38.8399L12.7155 38.1579M18.985 38.8399L22.419 41.0008M18.985 38.8399L17.3632 41.3363M12.7155 38.1579L8.73282 37.0924M12.7155 38.1579L17.3632 41.3363M17.3632 41.3363L22.419 41.0008M22.419 41.0008L27.694 41.1884" stroke="#000" stroke-width="0.4" stroke-linecap="round"/>
</svg>
